<?xml version="1.0" encoding="UTF-8"?>
<svg xmlns="http://www.w3.org/2000/svg" version="1.1" xmlns:xlink="http://www.w3.org/1999/xlink" viewBox="0 0 2400 2000">
  <defs>
    <radialGradient id="_åçûìßííûé_ãðàäèåíò_3" data-name="åçûìßííûé ãðàäèåíò 3" cx="1440" cy="1140" fx="1440" fy="1140" r="791.012" gradientUnits="userSpaceOnUse">
      <stop offset="0" stop-color="#818cf8"/>
      <stop offset="1" stop-color="#4338ca"/>
    </radialGradient>
    <radialGradient id="_åçûìßííûé_ãðàäèåíò_57" data-name="åçûìßííûé ãðàäèåíò 57" cx="1160" cy="960" fx="1160" fy="960" r="791.012" gradientUnits="userSpaceOnUse">
      <stop offset="0" stop-color="#c7d2fe"/>
      <stop offset="1" stop-color="#634af2"/>
    </radialGradient>
    <radialGradient id="_åçûìßííûé_ãðàäèåíò_62" data-name="åçûìßííûé ãðàäèåíò 62" cx="980.001" cy="940" fx="980.001" fy="940" r="830.241" gradientUnits="userSpaceOnUse">
      <stop offset="0" stop-color="#a5b4fc"/>
      <stop offset="1" stop-color="#4f46e5"/>
    </radialGradient>
  </defs>
  <!-- Generator: Adobe Illustrator 28.7.7, SVG Export Plug-In . SVG Version: 1.2.0 Build 194)  -->
  <g style="isolation: isolate;">
    <g id="_àð_3" data-name="àð_3">
      <g>
        
        <g style="mix-blend-mode: multiply;">
          <path d="M750.008,1396.258c-109.879-267.211-279.394-502.739,65-825.361,344.399-322.623,586.531-144.555,875.824,3.676,289.293,148.233,656.641,349.094,564.801,689.154-91.84,340.062-286.214,371.77-566.324,515.641-280.106,143.871-677.563,253.418-939.301-383.11Z" style="fill: #e0e7ff;"/>
        </g>
        <g style="mix-blend-mode: multiply;">
          <path d="M828.117,1686.754c399.348,92.844,754.398-108.891,933.605-313.606,179.207-204.715,266.743-472.738,212.195-825.429-55.789-360.715-261.403-408.617-415.937-255.891-242.172,239.334-301.605,296.197-536.262,332.192-285.192,43.746-542.059,51.334-661.535,343.424-85.828,209.834-6.09,609.1,467.934,719.311Z" style="fill: #e0e7ff;"/>
        </g>
        <g style="mix-blend-mode: multiply;">
          <path d="M1161.164,1634.895c-208.578-164.023-467.277-324.297-731.238-364.382-234.59-35.625-325.437-211.895-293.863-340.09,45.66-185.396,160.41-172.649,365.617-378.264,164.328-164.65,275.183-300.945,413.461-364.382,197.757-90.727,379.285-76.346,536.468,55.525,157.18,131.871,273.359,347.031,345.118,742.646,71.758,395.615,20.266,598.413-85.821,689.912-96.761,83.452-335.011,127.898-549.742-40.965Z" style="fill: #e0e7ff;"/>
        </g>
        
      </g>
      <g>
        <path d="M1919.253,1174.119c-15.335.304-1394.027,13.62-1539.581,19.478-176.281,7.094-293.339,264.241-1.48,283.457,229.508,15.111,605.647,13.733,902.688,52.723,899.431,118.061,1190.692-366.601,638.373-355.658Z" style="fill: #4f46e5;"/>
        <g>
          <g>
            <path d="M696.964,955.602c9.899,2.395,18.713,3.277,27.889.318,13.265-4.281,27.299-16.587,46.483-43.999,2.241-3.206,4.551-6.617,6.942-10.239.043-.022-25.263-35.41-31.666-22.767-1.764,3.475-23.478,16.34-31.549,25.122-5.034,5.479-60.415,41.338-18.1,51.566Z" style="fill: #ffcfbf;"/>
            <g>
              <path d="M746.611,878.913s11.954-20.423,32.22-11.822c20.266,8.601,42.083,5.85,44.762,7.657,5.672,3.824-12.698,6.803-18.252,6.237,0,0,5.379,1.47,11.807.845,10.019-.974,15.804-.768,15.35,2.313-.54,3.671-18.528,5.599-24.476,3.78,0,0,7.845,4.013,19.591,3.179,10.555-.749,13.931.897,10.111,4.47-3.82,3.573-16.97,4.226-26.983,2.064,0,0,9.401,3.093,17.135,3.663,8.609.634,6.31,6.396-4.588,7.262-10.32.82-42.826-7.103-51.951,3.363l-24.726-33.01Z" style="fill: #ffcfbf;"/>
              <path d="M751.576,873.91c-2.312,3.633-3.026,7.751-2.059,11.995.151.662-.917.899-1.068.235-1.029-4.512-.285-8.927,2.176-12.796.361-.567,1.313-.004.95.566h0Z" style="fill: #fdbaa0;"/>
              <path d="M758.816,895.925c3.306-4.01,8.025-6.617,13.541-6.881,7.936-.38,14.486,5.016,21.888,6.966.692.182.4,1.181-.292.999-5.556-1.463-10.339-4.796-15.863-6.277-6.967-1.868-14.032.553-18.324,5.759-.425.515-1.381-.043-.951-.566h0Z" style="fill: #fdbaa0;"/>
              <path d="M803.245,877.925c1.341,1.014,2.099,2.563,1.884,4.161-.089.657-1.195.629-1.106-.034.163-1.212-.295-2.454-1.343-3.246-.558-.422-.001-1.309.565-.881h0Z" style="fill: #fdbaa0;"/>
              <path d="M806.471,885.724c1.609.894,1.288,2.706.792,4.062-.229.626-1.297.319-1.066-.311.321-.876.831-2.247-.29-2.87-.622-.346-.059-1.227.565-.881h0Z" style="fill: #fdbaa0;"/>
              <path d="M809.182,895.461c1.608.894,1.287,2.706.791,4.062-.229.626-1.297.319-1.066-.311.321-.876.831-2.247-.29-2.87-.622-.346-.059-1.227.565-.881h0Z" style="fill: #fdbaa0;"/>
            </g>
            <path d="M724.853,955.919c13.265-4.281,27.299-16.587,46.483-43.999,0,0-9.125-3.081-19.882,11.127s-28.246,13.873-31.549,22.016c-1.524,3.762,1.379,7.706,4.948,10.856Z" style="fill: #ffe1da;"/>
          </g>
          <path d="M555.609,1258.119c1.215,42.605,4.017,81.467,9.544,105.572.559,2.479,2.763,4.233,5.301,4.233h80.948c3.606,0,5.409-4.36,2.851-6.908-1.48-1.48-4.008-3.008-8.172-4.36-14.247-4.645-30.16-16.913-28.504-48.073.382-7.31,1.724-24.869,3.547-47.456-8.094.216-20.205.931-33.767,2.626-15.266,1.911-24.81-4.331-31.748-5.634Z" style="fill: #3f3f46;"/>
          <path d="M479.08,1369.09c7.486,0,22.096-54.413,35.785-113.735-8.75-1.999-23.096-3.4-38.725,2.763-15.835,6.242-25.418-1.627-36.402-6.477-8.427,45.28-15.619,72.188-21.41,81.144-10.945,16.903-41.018,28.417-43.105,31.826-3.929,6.438,47.024,4.478,103.857,4.478Z" style="fill: #3f3f46;"/>
          <path d="M570.877,740.975c.82-13.003,18.208-38.176,53.658-32.508,35.81,5.726,25.205,30.117,44.581,43.373,12.15,8.313-5.896,20.585,10.455,31.745,11.439,7.808-11.122,18.305-21.554,19.365-39.677,4.031-97.367.566-101.992-4.473-7.101-7.737,6.298-6.134,2.496-23.978-3.635-17.065,11.056-12.921,12.355-33.523Z" style="fill: #d44d2c;"/>
          <path d="M613.046,931.078s28.076,61.796,32.916,119.966c4.841,58.17,24.203,272.126,24.203,272.126,0,0-42.419,13.582-78.593,7.774-16.585-2.663-27.514-3.647-34.487-3.932-5.999-.245-10.652-5.321-10.331-11.316l13.727-256.298-34.286,258.89c-.715,5.4-5.569,9.265-10.992,8.757-15.043-1.409-44.138-3.582-62.173-1.377-67.014,8.192-57.814-19.923-57.814-19.923,0,0,95.174-345.007,105.896-357.755,10.722-12.748,111.932-16.911,111.932-16.911Z" style="fill: #818cf8;"/>
          <path d="M586.255,808.273l-1.667,60.156-.393,14.282s.772,1.859,2.346,5.089c6.952,14.286,29.493,55.408,69.626,81.363,49.207,31.825,91.04,7.761,108.366-10.086,17.327-17.851,7.384-30.478-6.982-45.574-14.371-15.097-15.188-40.842-28.758-26.683-13.575,14.158-28.82,11.238-53.276-28.557-10.671-17.361-24.838-28.691-38.734-36.087-25.722-13.694-50.528-13.903-50.528-13.903Z" style="fill: #3f3f46;"/>
          <path d="M419.263,914.796c-16.909,66.745,38.87,77.959,38.87,77.959l100.228-102.699,33.325-6.46,19.821-16.2,8.08-6.601-2.094-3.302-31.237-49.218s-6.42-.244-16.782.486c-37.789,2.668-127.986,18.302-150.209,106.036Z" style="fill: #3f3f46;"/>
          <path d="M486.751,961.805c5.698,2.242,34.426,25.463,30.933,29.513-5.594,6.487-20.763-8.233-21.284-3.07-.521,5.163,21.173,30.952,16.812,37.988-4.361,7.036-15.556-16.528-17.339-15.23-1.783,1.298,14.066,22.305,10.016,27.981-4.05,5.676-17.645-19.023-22.71-23.098-5.065-4.075,12.818,21.052,6.738,22.817-6.08,1.766-19.611-26.403-22.153-24.546-2.542,1.856,5.837,15.378,2.012,15.458-8.411.176-24.475-42.873-21.751-48.934,2.724-6.061,38.725-18.879,38.725-18.879Z" style="fill: #ffcfbf;"/>
          <path d="M602.122,827.129c7.74.523,14.949-4.602,16.801-12.4l7.349-30.947c2.063-8.688-3.307-17.403-11.995-19.466-8.687-2.064-12.895-1.691-14.959,6.997l-10.696,40.528c-2.063,8.688,2.147,12.82,10.834,14.883.89.212,1.782.345,2.665.405Z" style="fill: #ffcfbf;"/>
          <path d="M641.165,738.53s15.077,49.293-7.383,58.36c-13.794,5.568-27.817-4.027-43.868-20.849-13.815-14.479,23.413-75.631,51.251-37.511Z" style="fill: #ffcfbf;"/>
          <path d="M630.348,767.621c.006,1.434-1.759,2.12-2.84,2.618-.601.277-.712,1.175-.393,1.687.385.619,1.084.671,1.687.393,2.016-.93,4.006-2.302,3.995-4.766-.007-1.577-2.456-1.51-2.449.067h0Z" style="fill: #fdbaa0;"/>
          <path d="M623.358,755.174c-2.473-3.944-7.298-5.588-11.694-6.12-1.566-.189-1.773,2.252-.206,2.441,3.816.461,7.867,1.819,10.008,5.235.836,1.334,2.718-.239,1.892-1.557h0Z" style="fill: #e28f77;"/>
          <path d="M638.777,750.57c-4.211-.786-8.011,2.422-10.435,5.489-.964,1.22.745,2.98,1.723,1.742,1.76-2.226,4.826-5.475,8.048-4.873,1.539.288,2.216-2.068.664-2.358h0Z" style="fill: #e28f77;"/>
          <path d="M612.016,760.106c1.941-1.733,6.973-1.776,7.39,1.561.098.78,1.317.659,1.219-.126-.524-4.187-6.616-4.847-9.32-2.433-.582.52.123,1.523.711.997h0Z" style="fill: #45403e;"/>
          <path d="M613.615,760.531c-.215,1.284.584,2.488,1.784,2.689,1.201.202,2.349-.676,2.564-1.959.215-1.284-.583-2.488-1.784-2.689s-2.349.676-2.564,1.959Z" style="fill: #45403e;"/>
          <path d="M632.186,759.843c1.147-2.335,5.794-4.267,7.435-1.331.384.686,1.468.116,1.082-.575-2.059-3.683-7.952-2.005-9.551,1.249-.344.701.686,1.365,1.034.657h0Z" style="fill: #45403e;"/>
          <path d="M633.828,759.635c.283,1.27,1.476,2.086,2.664,1.821,1.189-.265,1.923-1.509,1.64-2.78-.283-1.27-1.476-2.086-2.664-1.821-1.189.265-1.923,1.509-1.64,2.779Z" style="fill: #45403e;"/>
          <path d="M605.383,792.932c5.999,4.235,12.332,6.71,19.749,6.611,1.577-.021,1.51-2.47-.067-2.449-7.007.093-12.862-2.328-18.504-6.311-1.288-.91-2.452,1.249-1.178,2.148h0Z" style="fill: #fdbaa0;"/>
          <path d="M628.722,727.8s-2.257,17.364-19.307,18.992-6.52,35.387-14.438,39.429c-7.918,4.042-19.431-29.577-19.431-29.577l19.521-27.922,14.227-8.561,19.429,7.638Z" style="fill: #d44d2c;"/>
          <g>
            <path d="M604.369,762.497s-7.459-7.613-11.164-4.583-.931,12.083,3.526,12.91c4.457.827,7.708-5.756,7.673-7.042l-.035-1.285Z" style="fill: #ffcfbf;"/>
            <path d="M600.416,770.151c.645-.944.426-.119-.126-.283-.238-.071-.748.02-1.001,0-1.139-.094-2.282-.508-3.231-1.137-1.636-1.084-2.562-2.746-3.321-4.509-.446-1.036-1.034-2.087-.706-3.289.65-2.382,3.142-2.453,4.805-1.342,1.313.878,2.48-1.279,1.178-2.148-2.735-1.827-6.447-1.145-7.983,1.913-1.477,2.941.51,6.885,2.353,9.24,1.547,1.976,3.77,3.314,6.265,3.651,1.265.171,3.1.276,3.915-.916.89-1.304-1.267-2.469-2.148-1.178h0Z" style="fill: #fdbaa0;"/>
          </g>
          <path d="M623.237,730.433s19.073,6.727,20.882,20.557c1.81,13.829,12.639-15.019.843-23.896-11.796-8.877-19.58-4.306-19.58-4.306l-2.146,7.645Z" style="fill: #d44d2c;"/>
          <path d="M569.472,808.76c.928,11.71,8.016,40.568,15.115,59.669,2.452,6.579,4.899,11.998,7.098,15.167,1.432,2.056,2.755,3.16,3.907,3.008,3.194-.424,9.323-8.689,15.914-19.208,1.976-3.149,3.994-6.498,5.985-9.904,8.842-15.107,17.203-31.25,19.291-35.315-25.722-13.694-50.528-13.903-50.528-13.903,0,0-6.42-.244-16.782.486Z" style="fill: #ffcfbf;"/>
          <path d="M655.135,926.161s-19.462,23.668-16.233,44.292c3.229,20.624-31.555,22.278-69.516,12.292-37.961-9.986-72.084-20.529-68.205-42.434,3.879-21.905,71.063-62.596,71.063-62.596l82.891,48.446Z" style="fill: #3f3f46;"/>
          <path d="M553.102,810.804c-9.494,6.699-7.245,20.893,4.001,24.121-.278-.993-.555-1.985-.833-2.978-9.525,9.946-3.192,25.832,10.386,26.877-.436-1.011-.872-2.022-1.308-3.032-7.295,8.803-2.753,20.149,4.588,27.221,6.534,6.294,18.925,14.112,26.492,4.798,1.437-1.769-1.095-4.281-2.542-2.5-6.161,7.584-16.302.115-21.45-4.84-5.78-5.563-10.529-14.961-4.547-22.179,1.035-1.249.28-2.91-1.308-3.032-10.551-.812-14.988-13.275-7.771-20.812.954-.996.467-2.605-.833-2.978-8.115-2.329-10.009-12.695-3.053-17.603,1.865-1.316.054-4.388-1.824-3.063h0Z" style="fill: #fff;"/>
          <path d="M644.958,830.427c4.859,7.297-.405,16.341-9.113,15.808-1.411-.086-2.083,1.605-1.494,2.694,1.846,3.416,3.188,7.932,1.377,11.673-1.635,3.38-5.835,5.395-9.283,3.507-1.489-.816-2.822.57-2.594,2.043,1.279,8.279,1.791,17.351-5.778,22.855-6.785,4.934-15.854,3.403-21.354-2.656-1.546-1.704-4.037.849-2.5,2.542,6.548,7.215,17.604,8.915,25.678,3.177,9.124-6.484,8.926-16.897,7.379-26.905-.865.681-1.73,1.362-2.594,2.044,4.549,2.491,10.106.851,13.156-3.247,3.731-5.013,2.324-11.769-.425-16.856-.498.898-.996,1.796-1.494,2.695,11.356.696,18.381-11.766,12.102-21.197-1.269-1.905-4.337-.09-3.062,1.824h0Z" style="fill: #fff;"/>
          <path d="M590.024,902.025c-.959,1.747-.937,3.739-.027,5.497.274.53.973.918,1.568.87,1.748-.142,3.258-1.367,3.47-3.164.213-1.806-.974-3.327-2.64-3.883-.914-.305-1.942.406-2.165,1.29-.252.993.373,1.859,1.29,2.166-.28-.094.022.083-.029.009-.078-.113-.004.267.022.017.026-.249-.114.041-.025-.012.123-.073-.285.037.003.014.523.29,1.045.58,1.568.87-.325-.627-.243-1.351.064-1.91,1.105-2.012-1.994-3.775-3.099-1.763h0Z" style="fill: #fff;"/>
          <path d="M583.002,936.996c-.228,1.238-.236,3.275,1.034,3.996,1.186.673,2.838.09,3.735-.792,1.937-1.906.82-5.293-1.791-5.84-.942-.197-1.922.328-2.165,1.29-.23.906.343,1.967,1.29,2.166.108.023.254.065.07-.006-.216-.082.08.078.035.015-.041-.057.013.131.04.081-.022.041-.012-.317-.002-.254.025.152-.127.203-.015.062.146-.183-.07.029-.068.049-.008-.063.302-.146.065-.068-.178.059.043.006.126.02.425.411.85.823,1.275,1.234-.151-.392-.234-.744-.173-1.077.174-.947-.312-1.918-1.29-2.166-.887-.225-1.991.338-2.166,1.29h0Z" style="fill: #fff;"/>
          <path d="M575.356,969.833c.563,1.43,1.86,2.535,3.471,2.456,1.659-.082,2.856-1.427,2.979-3.036.123-1.604-1.159-2.984-2.759-3.013-1.62-.029-2.926,1.209-2.987,2.812-.036.933.898,1.805,1.82,1.745,1.01-.065,1.707-.82,1.745-1.819.007.141-.022.272-.087.393-.072.155-.073.169-.003.041-.054.123-.137.219-.248.288-.129.093-.132.1-.009.02-.075.031-.149.062-.224.093.182-.051.134-.052-.144-.003-.001,0,.439.089.079-.017-.138.002-.265-.037-.382-.118.125.075.122.068-.011-.02-.149-.16-.282-.27-.344-.493.098.353-.013-.418.004-.047.016.345.101-.386-.004-.053.034-.08.069-.16.103-.241-.03.066-.064.13-.102.191.05-.065.1-.13.15-.195-.105.103-.097.105.024.007.128-.091.13-.095.007-.014.074-.03.148-.061.222-.091-.346.115.311.034-.023.008.252.04.31.046.174.018-.06-.011-.119-.027-.177-.048.231.1.285.118.162.054-.055-.028-.108-.06-.16-.096.057.042.115.083.172.125-.062-.056-.12-.115-.174-.179.044.053.089.106.134.159-.093-.169-.087-.142.019.083-.341-.865-1.235-1.546-2.207-1.219-.845.284-1.584,1.279-1.219,2.207h0Z" style="fill: #fff;"/>
          <path d="M566.387,1034.789c-4.325,8.886-7.313,18.25-8.849,28.017-.353,2.244,3.081,3.211,3.437.947,1.486-9.455,4.299-18.555,8.489-27.165,1-2.054-2.073-3.864-3.078-1.799h0Z" style="fill: #634af2;"/>
          <path d="M594.582,1006.931c5.753,13.091,18.218,22.526,32.386,24.486,2.243.31,3.214-3.124.948-3.437-13.385-1.852-24.818-10.476-30.255-22.848-.921-2.095-3.993-.283-3.078,1.799h0Z" style="fill: #634af2;"/>
          <path d="M662.024,991.814c12.292,9.711,27.772,14.364,43.386,12.761,2.264-.233,2.215-3.8-.074-3.565-14.614,1.501-29.26-2.612-40.812-11.738-1.785-1.41-4.299,1.121-2.5,2.542h0Z" style="fill: #51c6d4;"/>
          <path d="M512.164,808.256c-8.662,1.269-16.726,4.565-23.784,9.748-1.853,1.361.258,4.234,2.108,2.875,6.577-4.829,14.027-7.9,22.102-9.083,2.265-.332,1.852-3.873-.426-3.54h0Z" style="fill: #3f3f46;"/>
          <path d="M580.662,706.258c-6.681,3.358-11.994,8.768-15.264,15.489-1.003,2.06,2.121,3.78,3.126,1.714,3.032-6.231,7.831-11.064,14.021-14.175,2.048-1.029.157-4.053-1.883-3.028h0Z" style="fill: #d44d2c;"/>
          <path d="M528.05,898.189c-6.097,2.618-12.373,4.763-18.825,6.323-2.827.683-5.683,1.128-8.525,1.72-1.68.35-3.674.81-4.618,2.429-.985,1.692-.122,2.978.513,4.536.713,1.749,1.785,3.64-.411,5.111-.902.604-2.051.489-2.832,1.349-.943,1.038-.854,2.563-.171,3.71.478.803,1.142,1.147,1.832,1.734,1.534.562,2.184,1.616,1.948,3.163-.237,1.138-.969,1.873-2.195,2.207-.813.12-1.629,1.017-1.027,1.852,1.451,2.013,3.48,3.526,4.9,5.544,2.254,3.202,1.944,6.856.267,10.218-2.531,5.077-6.777,9.899-11.51,12.992-1.318.861-.07,2.969,1.254,2.104,5.435-3.551,10.753-9.418,13.129-15.53,1.042-2.679,1.32-5.581.356-8.323-1.217-3.461-4.223-5.389-6.292-8.259-.342.617-.684,1.234-1.027,1.852,3.098-.457,5.514-3.566,4.446-6.769-.652-1.958-4.238-3.247-2.727-5.318.392-.538,1.552-.851,2.08-1.446.606-.683,1.065-1.511,1.285-2.403.181-.736.214-1.561.072-2.303-.178-.932-1.2-1.911-1.272-2.739-.276-3.207,2.255-3.267,4.516-3.672,1.631-.292,3.255-.62,4.872-.983,7.085-1.591,13.972-3.88,20.641-6.744,1.429-.614.77-2.977-.679-2.354h0Z" style="fill: #fff;"/>
          <path d="M650.788,893.572c.875,6.61,1.285,13.26,1.122,19.928-.075,3.062-.036,6.386-.769,9.382-.963,3.939-3.305,5.295-6.239,7.67-3.213,2.6-4.34,5.89-4.55,9.921-.256,4.9,1.187,10.775-2.319,14.821-1.03,1.188.713,2.911,1.747,1.718,2.935-3.387,3.106-7.569,3.035-11.863-.043-2.629-.261-5.401.433-7.969.968-3.582,3.831-4.919,6.458-7.142,4.265-3.609,4.377-9.419,4.588-14.592.298-7.331-.092-14.653-1.055-21.925-.204-1.544-2.657-1.514-2.45.051h0Z" style="fill: #fff;"/>
          <path d="M625.908,786.509c1.016-.029,1.93-.595,2.603-1.492.753-1.013,1.2-2.452,1.158-4.03-.08-2.992-1.899-5.371-4.053-5.309-2.159.059-3.841,2.53-3.761,5.523.08,2.992,1.898,5.366,4.053,5.308Z" style="fill: #fff;"/>
        </g>
        <g>
          <path d="M1865.892,1040.414s.502,19.762-2.423,34.371c-2.926,14.61-47.151-16.281-47.151-16.281l49.575-18.09Z" style="fill: #818cf8;"/>
          <path d="M1870.702,1219.67c9.342,78.823,3.002,146.883,1.017,149.957-4.672,7.236-104.128,6.63-113.093,0-8.965-6.639,48.727-25.932,62.964-55.483,1.657-3.437,3.117-9.669,4.4-18,3.836-24.775-19.291-58.548-17.914-102.064-22.3.608,51.767-66.032,62.626,25.589Z" style="fill: #ffcfbf;"/>
          <path d="M1729.223,1205.744c-5.957,76.904-12.159,151.61-14.026,155.071-3.896,7.226-103.417,6.36-113.093-.296-9.676-6.664,45.947-25.812,57.016-55.334,1.289-3.434,2.08-9.664,2.47-17.994.744-15.633.083-38.655-1.332-64.453-.827-15.081-3.126-47.176-3.126-47.176-5.106-67.572,78.569-53.464,72.091,30.181Z" style="fill: #ffcfbf;"/>
          <path d="M1902.386,1299.348s-65.161,16.542-95.527,5.685l-1.413-13.197-13.501-126.301-8.012-74.91s-25.455,57.21-30.786,77.322c-8.073,30.427-17.498,124.705-17.498,124.705-30.372,10.857-87.741-11.698-87.741-11.698,0,0,1.334-25.284,3.43-54.992,2.145-30.476,5.075-65.588,8.164-82.824,2.437-13.599,11.71-45.183,17.218-63.437,2.474-8.189,4.186-13.696,4.186-13.696l25.547-92.085,159.47-13.593,36.465,339.021Z" style="fill: #10b981;"/>
          <path d="M1690.796,788.248c.755-2.4,2.508-4.35,4.817-5.35,7.347-3.181,24.381-10.18,37.691-12.777,41.071-8.013-14.765,38.71-14.765,38.71,0,0-18.56,2.025-19.88,2.168-1.319.142-15.529,1.603-15.529,1.603l7.665-24.354Z" style="fill: #ffcfbf;"/>
          <path d="M1729.32,802.03c-7.009,2.454-14.896.073-18.701-6.066l-25.624-41.343c-4.356-7.027-1.715-16.318,5.898-20.752,7.612-4.435,17.315-2.331,21.671,4.696l25.624,41.342c4.355,7.027,1.715,16.319-5.898,20.752-.961.56-1.957,1.016-2.97,1.37Z" style="fill: #ffcfbf;"/>
          <path d="M1715.264,856.891l-25.206,49.132c-7.145,23.038-38.983,40.231-66.421,35.959q.003.009-.009.003c-6.037-.934-11.855-2.913-17.16-6.097-25.763-15.476-48.847-41.752-60.153-55.801-.021-.031-.027-.048-.027-.048-4.664-5.784-7.307-9.489-7.307-9.489-12.321-10.963-13.198-19.396-1.08-31.544,12.115-12.157,18.467-20.447,28.915-7.851,18.882,22.753,35.255,34.933,58.401,49.476,12.25,7.71,34.004-47.765,34.004-47.765,7.672-14.962,26.444-21.716,41.923-15.079,15.468,6.632,21.792,24.14,14.12,39.102Z" style="fill: #ffcfbf;"/>
          <path d="M1657.2,721.697s4.811,48.948,19.419,48.626c14.608-.322,37.629-15.728,40.384-34.262,2.755-18.534-46.65-56.982-59.803-14.364Z" style="fill: #ffcfbf;"/>
          <path d="M1694.725,783.285s6.386,23.982,25.431,18.365c18.003-5.309,17.058-32.369,17.058-32.369,0,0,25.022-8.825,79.104,38.59,68.643,60.181,50.851,174.549,50.851,174.549,0,0-56.843,52.963-172.098,32.524,0,0,6.255-89.281-25.385-137.754,0,0-24.061,1.286-32.631-12.522,0,0-2.33-48.048,57.67-81.382Z" style="fill: #818cf8;"/>
          <path d="M1668.089,691.931s-11.977,1.477-18.115,9.616c-6.137,8.138,9.855,9.328,9.855,9.328,0,0-19.233,13.361-12.879,19.043,6.354,5.682,31.094-12.483,31.094-12.483,0,0,3.012,4.935,10.471,4.241,7.46-.695,9.721-6.518,9.721-6.518,0,0-.81,5.817,7.77,7.342,0,0-2.238,19.225,9.199,20.016,11.437.791,24.994-16.033,20.713-34.321-3.111-13.286-14.814-15.179-14.814-15.179,0,0,.043-12.94-14.56-13.722-11.251-.602-17.946,8.33-17.946,8.33,0,0-11.779-11.929-20.51,4.305Z" style="fill: #3f3f46;"/>
          <path d="M1705.861,754.232c-4.508,4.165-9.302,7.568-14.669,10.528-1.316.726.023,2.648,1.333,1.925,5.534-3.053,10.481-6.652,15.118-10.936,1.104-1.02-.687-2.53-1.783-1.517h0Z" style="fill: #fdbaa0;"/>
          <path d="M1672.096,743.441c1.325,1.925,2.77,2.31,5.12,2.467,1.486.099,1.948-2.198.447-2.298-1.407.109-2.621-.392-3.642-1.502-.853-1.24-2.782.088-1.925,1.333h0Z" style="fill: #fdbaa0;"/>
          <path d="M1680.573,732.554c1.295-.972,2.589-1.944,3.884-2.916,1.454-.411.672-2.618-.772-2.21-2.4.678-3.544,1.529-4.894,3.608-.809,1.246.962,2.781,1.782,1.519h0Z" style="fill: #e28f77;"/>
          <path d="M1667.181,732.494c1.484.646,2.969,1.292,4.454,1.938,1.075,1.061,2.609-.708,1.541-1.763-1.774-1.752-3.08-2.327-5.554-2.474-1.483-.088-1.943,2.21-.441,2.299h0Z" style="fill: #e28f77;"/>
          <path d="M1697.657,731.652s4.383-9.177,8.812-7.864,4.854,10.088,1.004,12.364c-3.85,2.276-9.032-2.259-9.424-3.38l-.392-1.12Z" style="fill: #ffcfbf;"/>
          <path d="M1687.731,689.05c5.563-6.783,11.96-14.047,21.443-10.879,4.679,1.563,11.612,6.391,9.083,12.901-1.051,2.706-3.998,5.29-5.966,7.361-.519.546.373,1.304.892.759,2.65-2.789,6.599-6.244,6.754-10.405.171-4.563-4.178-9.366-7.926-11.491-9.979-5.66-19.369,3.921-25.172,10.996-.477.582.412,1.343.891.759h0Z" style="fill: #3f3f46;"/>
          <path d="M1669.653,691.999c-7.399,1.191-23.943,4.755-22.973,15.353.89,9.729,13.848,7.488,20.032,5.822.727-.196.337-1.3-.387-1.105-2.762.744-5.762,1.664-8.649,1.657-7.074-.016-12.077-8.115-5.904-13.858,4.497-4.183,12.156-5.767,17.961-6.701.739-.119.664-1.288-.079-1.168h0Z" style="fill: #3f3f46;"/>
          <path d="M1722.8,687.339c-1.043,4.92-3.763,7.137-7.304,10.085-.574.478.086,1.446.667.962,3.697-3.078,6.768-6.022,7.786-10.824.157-.739-.993-.96-1.149-.224h0Z" style="fill: #3f3f46;"/>
          <path d="M1730.316,693.012c-5.806-1.589-11.125-.814-16.345,2.12-.655.368.013,1.33.667.962,4.988-2.804,9.995-3.427,15.455-1.933.728.199.946-.951.224-1.149h0Z" style="fill: #3f3f46;"/>
          <path d="M1702.82,738.898c11.37,2.734,10.834-24.744-.948-13.87-1.104,1.019.686,2.53,1.783,1.517,1.774.994,3.548,1.988,5.323,2.982.066,1.888-.572,3.423-1.915,4.605-.68.816-2.37,2.81-3.795,2.467-1.469-.353-1.909,1.947-.447,2.298h0Z" style="fill: #fdbaa0;"/>
          <path d="M1571.36,839.957c-.08-5.689-11.43-37.842-16.364-35.936-7.904,3.053.349,20.748-4.576,19.705s-21.079-27.73-29.058-25.925c-7.979,1.804,9.778,18.563,7.967,19.76-1.812,1.197-15.604-18.93-22.226-17.004-6.622,1.925,11.345,21.136,13.328,26.8,1.984,5.664-14.886-17.461-18.621-12.602-3.735,4.859,17.442,25.023,14.853,26.729-2.589,1.705-12.099-9.639-13.502-6.282-3.085,7.382,30.883,34.12,37.398,33.479,6.515-.641,30.802-28.723,30.802-28.723Z" style="fill: #ffcfbf;"/>
          <path d="M1551.788,830.189c-1.569,5.678-5.917,10.934-4.297,17.054,1.188,4.489,4.595,7.985,9.007,9.239.726.206.944-.945.224-1.149-4.388-1.247-7.76-5.295-8.36-9.81-.472-3.549,1.168-5.677,2.433-8.744.855-2.072,1.545-4.207,2.142-6.366.201-.728-.949-.946-1.149-.224h0Z" style="fill: #fdbaa0;"/>
          <path d="M1570.008,835.759c3.025,6.591,2.479,12.724-1.632,18.689-.423.614.463,1.38.892.759,4.336-6.292,5.061-12.828,1.845-19.834-.312-.679-1.419-.299-1.105.387h0Z" style="fill: #fdbaa0;"/>
          <path d="M1535.123,867.494c5.631,2.956,12.891,1.942,18.484-.464.688-.296.307-1.403-.387-1.105-5.231,2.25-12.276,3.304-17.59.514-.668-.351-1.174.705-.508,1.055h0Z" style="fill: #fdbaa0;"/>
          <path d="M1699.982,780.037c1.156,2.095,2.262,4.216,3.319,6.363.333.664,1.442.286,1.105-.387-1.121-2.234-2.271-4.445-3.461-6.643-.358-.661-1.318.009-.962.667h0Z" style="fill: #fdbaa0;"/>
          <path d="M1626.426,882.65c9.693,2.421,21.859,13.124,23.491,23.053.121.738,1.29.664,1.168-.079-1.804-10.978-13.912-21.495-24.435-24.123-.733-.183-.952.967-.224,1.149h0Z" style="fill: #fdbaa0;"/>
          <g style="opacity: .6;">
            <path d="M1623.637,941.982q.003.009-.009.003c-6.037-.934-11.855-2.913-17.16-6.097-25.763-15.476-48.847-41.752-60.153-55.801-.021-.031-.027-.048-.027-.048,0,0,10.184-7.523,24.51,2.92,14.33,10.451,33.359,32.54,45.497,37.874,7.477,3.286,11.229,13.712,7.342,21.149Z" style="fill: #ffe1da;"/>
          </g>
          <path d="M1671.174,738.662c-2.596-3.417-4.937-2.514-7.197-1.556-.685.29-1.403.059-1.007-.578,2.35-3.777,7.307-.997,9.203,1.543.447.599-.556,1.184-.999.59h0Z" style="fill: #45403e;"/>
          <path d="M1670.183,737.349c.287,1.168-.411,2.344-1.56,2.626-1.149.283-2.313-.435-2.6-1.603-.287-1.168.411-2.344,1.56-2.626,1.149-.283,2.313.435,2.6,1.603Z" style="fill: #45403e;"/>
          <path d="M1687.709,733.455c-4.223-.764-5.338,1.484-6.357,3.717-.309.677-.994.992-1.133.255-.82-4.372,4.713-5.672,7.827-5.082.734.139.39,1.248-.338,1.11h0Z" style="fill: #45403e;"/>
          <path d="M1686.138,735.257c.122,1.197-.733,2.264-1.91,2.384-1.177.12-2.23-.753-2.352-1.949s.733-2.264,1.91-2.384c1.177-.12,2.23.753,2.352,1.949Z" style="fill: #45403e;"/>
          <path d="M1651.337,1317.429s12.242-21.562,36.15,12.255c6.109,8.641,28.793-13.835,35.245-9.727,6.451,4.107,3.62,36.813-6.736,42.816-10.355,6.003-116.664,7.362-116.636-3.493.028-10.854,32.689-27.503,32.689-27.503l19.288-14.349Z" style="fill: #3f3f46;"/>
          <g>
            <path d="M1952.028,894.079c4.813-9.596,5.586-20.476,1.957-30.607-.545-1.521,1.747-2.609,2.298-1.069,3.844,10.733,3.258,22.302-1.864,32.515-.723,1.441-3.121.615-2.392-.839h0Z" style="fill: #ffcfbf;"/>
            <path d="M1839.268,775.481s46.309,20.474,66.765,34.348c19.195,13.021,43.943,36.66,43.742,62.585q.01-.005.01.007c-.042,5.704-1.111,11.406-3.409,16.873-11.173,26.537-47.155,62.745-62.789,74.634-.043.021-13.545-4.649-13.545-4.649-4.885,5.376-26.568-12.877-15.978-24.85,19.125-21.633,26.033-27.743,36.684-51.709,5.649-12.688-80.769-49.519-80.769-49.519-15.431-4.157-14.221-12.311-10.059-27.744,4.159-15.426,23.914-34.131,39.349-29.976Z" style="fill: #ffcfbf;"/>
            <path d="M1891.389,881.188c1.051-10.402,9.592-23.273,19.524-26.904.667-.244,1.144.763.469,1.01-9.288,3.396-17.891,16.156-18.884,25.985-.072.713-1.182.624-1.109-.09h0Z" style="fill: #f4a58c;"/>
            <g style="opacity: .6;">
              <path d="M1949.774,872.414q.01-.005.01.007c-.042,5.704-1.111,11.406-3.409,16.873-11.173,26.537-47.155,62.745-62.789,74.634,0,0-.374-10.386,17.124-31.859,10.8-13.253,26.451-36.756,29.841-48.885,2.085-7.474,11.547-12.903,19.224-10.77Z" style="fill: #ffe1da;"/>
            </g>
            <g>
              <path d="M1854.061,934.43c-5.441,1.163-34.648,17.707-32.12,21.857,4.05,6.648,19.838-4.293,19.537.413s-23.584,24.599-20.721,31.555c2.863,6.956,17.809-11.074,17.809-11.074,0,0-13.606,11.448-11.704,14.48,3.005,4.791,16.043-4.335,16.043-4.335,0,0-9.263,5.24-7.804,8.169,2.17,4.356,15.762-4.74,15.762-4.74,0,0,2.96.165,5.561.009,7.631-.457,31.085-27.812,29.545-33.65-1.54-5.838-31.908-22.684-31.908-22.684Z" style="fill: #ffcfbf;"/>
              <path d="M1849.606,935.579c5.854-4.21,12.614-5.081,19.254-2.199.655.284.289,1.336-.369,1.05-6.261-2.717-12.595-2.008-18.165,1.997-.577.415-1.303-.429-.721-.848h0Z" style="fill: #f4a58c;"/>
              <path d="M1828.133,987.768s.006-.005.01-.008c.601-.565,14.747-13.768,15.972-16.786.059-.149-.009-.32-.158-.379-.149-.059-.327.027-.379.158-1.181,2.903-15.685,16.443-15.832,16.579-.118.111-.121.294-.016.412.109.115.285.123.402.024Z" style="fill: #fdbaa0;"/>
              <path d="M1844.507,985.906c2.235-1.899,4.816-4.272,6.822-6.621.104-.121.09-.306-.032-.41-.111-.092-.27-.093-.378-.001-.013.011-.02.022-.032.033-4.377,5.149-11.583,10.398-11.653,10.457-.009.002-.012.005-.019.01-.114.097-.137.269-.043.392.093.129.273.161.402.062.041-.029,2.231-1.628,4.932-3.923Z" style="fill: #fdbaa0;"/>
              <path d="M1853.318,989.208c1.357-1.153,3.059-2.812,3.887-4.466.074-.144.014-.318-.128-.388-.142-.071-.32-.023-.388.128-1.408,2.796-5.626,5.741-5.665,5.779-.012.005-.019.01-.025.016-.114.097-.136.263-.049.386.092.134.273.167.401.074.081-.052.92-.64,1.966-1.529Z" style="fill: #fdbaa0;"/>
            </g>
          </g>
          <path d="M1859.298,784.724s-5.234,65.795-67.732,58.477l-38.408-50.642-15.944-23.28s6.769-4.551,20.209-7.08l.012-.006c17.955-3.381,47.828-3.174,89.373,16.28,4.052,1.895,8.213,3.972,12.49,6.251Z" style="fill: #818cf8;"/>
          <path d="M1825.63,1269.086c-5.788,11.314-13.483,18.394-20.185,22.75l-13.501-126.301c4.039,7.275,9.078,19.332,11.046,36.44,3.516,30.469,35.423,42.107,22.64,67.111Z" style="fill: #a1a1aa;"/>
          <path d="M1815.664,1026.45c5.502,11.766,23.817,16.827,35.237,20.099.875.251.503,1.618-.377,1.366-11.978-3.432-30.322-8.429-36.083-20.75-.384-.821.837-1.541,1.223-.715h0Z" style="fill: #129786;"/>
          <path d="M1729.097,1028.925c-11.948,7.756-24.474,14.125-38.882,15.22-.909.069-.905-1.348,0-1.416,14.154-1.076,26.451-7.422,38.167-15.027.767-.498,1.478.728.715,1.223h0Z" style="fill: #129786;"/>
          <path d="M1644.175,1321.874c7.418,5.851,12.865,13.067,15.95,22.042.973,2.832,5.501,1.627,4.518-1.233-3.347-9.739-9.059-17.731-17.148-24.111-2.34-1.845-5.684,1.437-3.319,3.302h0Z" style="fill: #fff;"/>
          <path d="M1647.763,1346.623c-2.688-7.635-7.635-13.268-14.762-17.087-2.655-1.423-5.033,2.611-2.374,4.036,6.048,3.241,10.316,7.744,12.618,14.284.994,2.822,5.522,1.619,4.518-1.233h0Z" style="fill: #fff;"/>
          <path d="M1636.224,1350.572c-4.155-7.019-14.105-12.08-21.828-13.707-2.939-.619-4.208,3.89-1.256,4.511,6.39,1.346,15.549,5.659,19.035,11.548,1.534,2.59,5.589.249,4.049-2.352h0Z" style="fill: #fff;"/>
          <path d="M1681.898,752.245c.825,2.525.011,5.056-1.819,5.654-1.83.598-3.982-.964-4.807-3.489-.825-2.525-.01-5.056,1.819-5.654,1.83-.598,3.982.964,4.807,3.489Z" style="fill: #fff;"/>
          <g>
            <path d="M1813.176,1326.143s7.454-19.531,32.131,12.426c6.468,8.376,28.757-13.91,35.22-9.819,6.462,4.091,3.716,36.804-6.624,42.834-10.34,6.03-116.645,7.666-116.645-3.188s34.483-25.854,34.483-25.854l21.434-16.399Z" style="fill: #3f3f46;"/>
            <path d="M1804.722,1330.872c7.433,5.831,12.899,13.034,16.007,22,.981,2.829,5.505,1.613,4.515-1.245-3.373-9.73-9.105-17.708-17.211-24.066-2.344-1.839-5.68,1.452-3.311,3.31h0Z" style="fill: #fff;"/>
            <path d="M1807.929,1354.201c-2.708-7.628-7.67-13.248-14.807-17.048-2.658-1.416-5.026,2.624-2.363,4.043,6.056,3.225,10.336,7.717,12.655,14.25,1.001,2.82,5.526,1.605,4.515-1.245h0Z" style="fill: #fff;"/>
            <path d="M1795.573,1363.89c-4.173-7.008-14.136-12.043-21.863-13.649-2.94-.611-4.197,3.901-1.245,4.515,6.393,1.329,15.564,5.618,19.065,11.498,1.54,2.587,5.59.234,4.043-2.363h0Z" style="fill: #fff;"/>
          </g>
          <path d="M1762.31,1065.861c10.175,4.949,17.563,14.151,20.154,25.171.449,1.908,3.387,1.1,2.938-.81-2.755-11.72-10.723-21.724-21.554-26.992-1.756-.854-3.302,1.772-1.537,2.63h0Z" style="fill: #129786;"/>
          <path d="M1846.808,778.473c-4.996,4.636-12.685,8.743-22.409,4.448-17.876-7.884-23.56-13.635-44.684-10.388-21.117,3.247-22.293-10.333-22.293-10.333l.012-.006c17.955-3.381,47.828-3.174,89.373,16.28Z" style="fill: #ffb7a4;"/>
          <path d="M1671.674,1212.424c-5.788,7.183-13.276,11.253-20.337,13.538,2.145-30.476,5.075-65.588,8.164-82.824,2.437-13.599,11.71-45.183,17.218-63.437.238.378,10.412,17.291,0,46.207-10.528,29.245,10.187,67.629-5.045,86.516Z" style="fill: #a1a1aa;"/>
        </g>
        <g>
          <path d="M975.95,921.128c-4.176-20.351,8.937-40.234,29.288-44.409,20.351-4.176,40.234,8.937,44.409,29.288,4.176,20.351-8.937,40.234-29.288,44.409-20.351,4.176-40.234-8.937-44.409-29.288Z" style="fill: #e4e4e7;"/>
          <path d="M1277.976,859.157c-4.175-20.351,8.937-40.234,29.288-44.409,20.351-4.176,40.233,8.937,44.409,29.288,4.176,20.351-8.937,40.234-29.288,44.409-20.351,4.176-40.234-8.937-44.41-29.288Z" style="fill: #e4e4e7;"/>
        </g>
        <path d="M1530.166,681.925s-140.269-1.658-314.06,25.488l-31.369,64.304,23.712,6.08v66.878l3.381,44.838-.801,77.723-2.58-29.034-10.299-110.247-4.56-29.892h-24.814l11.061-84.632c-16.699,2.933-33.625,6.135-50.698,9.638-160.993,33.034-347.299,112.404-347.299,112.404l61.566,300.053s169.976-83.923,365.523-118.886c259.829-46.456,382.804-34.66,382.804-34.66l-61.566-300.053Z" style="fill: #acdad5;"/>
        <path d="M1561.096,918.919l-37.956-184.982c-.796-3.876-4.286-6.602-8.24-6.433-9.173.391-17.184-5.938-19.047-15.048-.793-3.88-4.288-6.609-8.245-6.438-46.216,1.998-157.227,8.802-285.822,30.748l-8.715,17.865c127.056-22.411,238.456-29.855,289.063-32.23,4.667,11.076,14.652,18.93,26.451,20.808l35.042,170.783c-6.565,2.018-12.441,5.979-16.834,11.491-4.478,5.619-7.06,12.386-7.529,19.407-52.076,1.551-156.593,8.788-317.063,38.088-128.155,23.413-244.392,65.289-306.699,90.186-3.201-6.265-8.241-11.464-14.572-14.86-6.218-3.335-13.183-4.658-20.017-3.919l-35.067-170.902c10.168-6.353,16.294-17.523,16.229-29.591,55.39-20.53,183.292-65.647,296.952-88.968,11.748-2.411,23.408-4.674,34.972-6.827l2.196-16.803c-13.338,2.448-26.818,5.05-40.408,7.838-118.947,24.406-253.035,72.343-305.163,91.821-3.719,1.39-5.873,5.28-5.075,9.169,1.877,9.157-3.027,18.144-11.663,21.371-3.721,1.389-5.874,5.281-5.076,9.171l37.988,185.14c.481,2.344,1.98,4.354,4.09,5.485,2.108,1.129,4.609,1.265,6.83.366,5.067-2.049,10.754-1.738,15.591.856,4.934,2.647,8.412,7.337,9.542,12.871.479,2.347,1.978,4.359,4.091,5.492,1.675.896,3.596,1.167,5.427.791.478-.098.951-.241,1.411-.427,59.479-24.138,179.024-68.231,311.316-92.398,168.496-30.767,274.619-37.041,322.881-38.042,2.388-.051,4.64-1.161,6.135-3.032,1.492-1.872,2.077-4.31,1.593-6.654-1.139-5.527.208-11.204,3.694-15.578,3.418-4.289,8.506-6.813,13.975-6.935,2.391-.057,4.635-1.163,6.127-3.032,1.491-1.87,2.075-4.304,1.594-6.647Z" style="fill: #e4e4e7;"/>
        <g>
          <path d="M1260.429,853.843c-6.17-30.07-26.158-53.769-51.98-65.844v56.675l3.381,44.838-.684,66.396c36.66-18.538,57.938-59.887,49.283-102.066Z" style="fill: #e4e4e7;"/>
          <path d="M1208.449,938.202l-10.299-110.247-4.56-29.892h-24.814l2.455-18.786c-6.921-.162-13.963.419-21.032,1.87-50.514,10.365-83.061,59.716-72.697,110.23,10.365,50.514,59.717,83.061,110.231,72.697,7.921-1.625,15.398-4.211,22.339-7.607l-1.623-18.264Z" style="fill: #e4e4e7;"/>
        </g>
        <path d="M1202.278,872.145c-5.152-6.382-13.664-10.105-26.896-11.925-14.648-2.123-20.917-4.47-21.959-9.546-.912-4.443,1.477-9.725,11.79-11.841,7.586-1.557,13.755-1.144,18.319-.371,3.037.514,5.834-1.769,6.009-4.844l.473-8.266c.154-2.694-1.769-5.054-4.437-5.452-4.169-.623-9.024-.87-14.865-.245-2.665.285-5.118-1.497-5.657-4.123l-.836-4.075c-.578-2.816-3.329-4.631-6.146-4.053l-5.345,1.097c-2.816.578-4.631,3.329-4.053,6.146l1.213,5.911c.466,2.271-.612,4.608-2.682,5.653-13.881,7.006-20.178,19.075-17.497,32.142,3.156,15.382,16.362,20.937,34.511,23.162,12.708,1.524,18.566,4.293,19.802,10.318,1.269,6.187-4.168,11.104-13.371,12.993-7.752,1.591-15.358,1.187-21.802-.08-3.141-.617-6.11,1.643-6.266,4.841l-.435,8.915c-.126,2.588,1.662,4.881,4.206,5.369,5.418,1.038,12.301,1.433,19.369.779,2.631-.244,5.019,1.546,5.55,4.134l1.079,5.259c.578,2.816,3.329,4.631,6.146,4.053l5.5-1.128c2.816-.578,4.631-3.329,4.053-6.146l-1.457-7.101c-.477-2.324.677-4.686,2.814-5.716,7.464-3.597,12.731-8.646,15.806-14.427l-2.936-31.432Z" style="fill: #bae0da;"/>
        <path d="M766.156,865.17s13.976-2.146,20.893-4.489c10.144-3.436,16.637-1.106,10.837,2.513-3.763,2.348-9.058,4.87-8.141,8.862.917,3.992-16.53-.451-16.53-.451l-7.059-6.436Z" style="fill: #ffcfbf;"/>
        <path d="M1094.706,658.963c21.536-25.285,54.745-76.077,77.103-102.089,4.601-5.353.777-13.616-6.283-13.616h-40.685l38.376-86.774c1.638-3.705-3.411-6.657-5.836-3.412l-92.79,124.192c-2.706,3.623.253,8.722,4.742,8.17l46.06-5.672-27.403,75.274c-1.508,4.144,3.858,7.283,6.716,3.927Z" style="fill: #818cf8;"/>
        <path d="M1205.419,665.539c23.492-5.604,64.781-21.174,89.068-26.851,4.998-1.168,6.298-7.66,2.154-10.689l-23.885-17.456,59.761-34.477c2.551-1.472.854-5.371-1.962-4.507l-107.761,33.097c-3.143.966-3.594,5.229-.722,6.831l29.474,16.433-48.385,32.434c-2.663,1.785-.86,5.931,2.258,5.187Z" style="fill: #818cf8;"/>
      </g>
    </g>
  </g>
</svg>